<?xml version="1.0" standalone="no"?>
<!DOCTYPE svg PUBLIC "-//W3C//DTD SVG 20010904//EN"
 "http://www.w3.org/TR/2001/REC-SVG-20010904/DTD/svg10.dtd">
<svg version="1.0" xmlns="http://www.w3.org/2000/svg"
 width="512.000000pt" height="512.000000pt" viewBox="0 0 512.000000 512.000000"
 preserveAspectRatio="xMidYMid meet">
<metadata>
Created by potrace 1.11, written by Peter Selinger 2001-2013
</metadata>
<g transform="translate(0.000000,512.000000) scale(0.100000,-0.100000)"
fill="#000000" stroke="none">
<path d="M935 5100 c-356 -73 -654 -300 -817 -625 -47 -92 -93 -240 -108 -340
-8 -58 -10 -509 -8 -1625 l3 -1545 28 -100 c72 -255 224 -481 429 -635 102
-77 274 -161 403 -197 l100 -28 1545 -3 c1116 -2 1567 0 1625 8 236 34 469
153 646 329 130 131 215 266 278 444 64 183 62 113 59 1817 l-3 1545 -23 82
c-67 251 -192 457 -372 611 -141 120 -289 198 -479 251 l-96 26 -1560 2
c-1478 1 -1565 1 -1650 -17z m2490 -660 l250 -250 70 70 c38 38 74 70 80 70 5
0 120 -110 254 -244 l243 -243 -71 -68 c-39 -38 -71 -73 -71 -79 0 -6 110
-121 245 -256 l245 -245 0 -330 0 -330 -317 -317 -318 -318 -325 0 -325 0
-252 252 -253 253 -577 -577 -576 -576 31 -27 c18 -15 32 -34 32 -43 0 -19
-419 -510 -549 -645 -49 -51 -60 -57 -96 -57 -39 0 -46 6 -377 337 -186 186
-338 343 -338 348 0 18 117 125 408 374 256 218 286 241 319 241 20 0 45 -8
55 -17 18 -16 42 6 596 560 l577 577 -253 253 -252 252 0 320 0 320 322 322
323 323 325 0 325 0 250 -250z"/>
<path d="M2332 4237 l-262 -262 0 -148 c0 -81 3 -147 7 -147 5 0 173 165 375
367 l368 368 60 -60 c33 -33 60 -64 60 -70 0 -5 -188 -198 -417 -427 l-418
-418 675 -675 675 -675 255 0 255 0 258 258 257 257 0 160 0 160 -368 -368
c-202 -202 -372 -367 -377 -367 -6 0 -37 27 -70 60 l-60 60 130 132 c72 73
144 146 160 163 17 17 147 149 290 294 l259 262 -669 669 -670 670 -255 0
-255 0 -263 -263z"/>
<path d="M3810 4062 c0 -4 51 -58 114 -121 73 -73 118 -111 126 -106 8 5 -25
45 -101 121 -101 102 -139 130 -139 106z"/>
<path d="M2445 2700 c-32 -33 -57 -62 -54 -64 5 -5 241 -90 297 -107 19 -6 41
-8 50 -4 12 4 -12 34 -98 120 -63 63 -119 115 -125 115 -6 0 -37 -27 -70 -60z"/>
<path d="M2167 2422 c-37 -37 -67 -70 -67 -74 0 -3 77 -32 172 -63 l171 -56
69 68 c37 37 68 70 68 73 0 3 -73 30 -162 59 -90 30 -168 56 -173 58 -6 2 -41
-27 -78 -65z"/>
<path d="M1875 2130 c-38 -38 -67 -71 -64 -73 2 -2 81 -28 176 -59 l171 -55
66 66 c36 37 66 69 66 73 0 4 -17 12 -37 18 -21 7 -93 32 -161 56 -67 24 -128
44 -135 44 -7 0 -44 -31 -82 -70z"/>
<path d="M1590 1845 c-39 -39 -60 -68 -55 -73 15 -13 300 -112 322 -112 10 0
49 31 86 68 l68 69 -165 56 c-90 32 -171 57 -178 57 -8 0 -43 -29 -78 -65z"/>
<path d="M1407 1578 c21 -24 74 -78 117 -121 l78 -78 58 63 c33 35 56 66 52
69 -12 10 -307 109 -326 109 -15 0 -10 -9 21 -42z"/>
<path d="M1099 1524 c-30 -27 -134 -118 -231 -202 -98 -84 -178 -156 -178
-160 0 -4 103 -110 229 -236 l229 -229 34 39 c20 22 75 86 124 144 49 58 124
145 166 195 43 49 78 92 78 95 0 3 -89 95 -199 204 l-198 198 -54 -48z"/>
</g>
</svg>
