<svg xmlns="http://www.w3.org/2000/svg" width="120" height="42"  xmlns:v="https://vecta.io/nano"><g transform="matrix(.993781 0 0 .993693 -177.69414 -148.87729)"><path d="M182.235 150.264l114.064.203c1.594 0 3.018-.236 3.018 3.18l-.14 37.567h-119.82v-37.706c0-1.685.163-3.244 2.878-3.244z" fill="#aab2ab"/><path d="M213.544 169.484c.005 7.577-6.135 13.724-13.712 13.729s-13.724-6.135-13.729-13.712c-.004-7.594 6.135-13.741 13.712-13.745s13.724 6.135 13.729 13.712z" fill="#fff"/><path d="M210.977 158.309c3.042 3.042 4.564 6.768 4.564 11.175s-1.495 8.094-4.485 11.058c-3.173 3.122-6.924 4.682-11.251 4.682-4.275 0-7.961-1.547-11.056-4.644s-4.643-6.794-4.643-11.097 1.547-8.027 4.643-11.175c3.016-3.044 6.702-4.565 11.056-4.565 4.407 0 8.13 1.521 11.173 4.565zm-20.18 2.046c-2.572 2.598-3.858 5.642-3.858 9.133s1.273 6.508 3.818 9.053 5.577 3.818 9.093 3.818 6.573-1.285 9.171-3.857c2.467-2.388 3.701-5.392 3.701-9.014 0-3.595-1.254-6.646-3.76-9.152s-5.543-3.759-9.112-3.759-6.587 1.26-9.054 3.778zm6.769 7.598c-.393-.857-.981-1.286-1.766-1.286-1.387 0-2.081.934-2.081 2.801s.693 2.801 2.081 2.801c.916 0 1.57-.455 1.963-1.366l1.923 1.024c-.917 1.628-2.291 2.443-4.125 2.443-1.414 0-2.547-.434-3.397-1.3s-1.277-2.063-1.277-3.586c0-1.497.438-2.686 1.316-3.566s1.97-1.32 3.28-1.32c1.938 0 3.326.763 4.165 2.289l-2.081 1.066zm9.046 0c-.394-.857-.97-1.286-1.73-1.286-1.415 0-2.123.934-2.123 2.801s.708 2.801 2.123 2.801c.917 0 1.56-.455 1.927-1.366l1.966 1.024c-.915 1.628-2.288 2.443-4.118 2.443-1.412 0-2.543-.434-3.393-1.3s-1.274-2.063-1.274-3.586c0-1.497.432-2.686 1.294-3.566s1.96-1.32 3.294-1.32c1.935 0 3.32.763 4.156 2.289l-2.122 1.066zm90.684-18.131H181.067c-1.247 0-2.261 1.014-2.261 2.26v39.496a.51.51 0 0 0 .511.51h119.729a.51.51 0 0 0 .511-.51v-39.496c0-1.247-1.014-2.26-2.261-2.26zm-116.229 1.02h116.229a1.24 1.24 0 0 1 1.239 1.24v27.381h-83.074c-3.045 5.506-8.911 9.244-15.644 9.244s-12.6-3.735-15.644-9.244h-4.347v-27.381a1.24 1.24 0 0 1 1.24-1.24z"/><path d="M239.178 182.777a4.16 4.16 0 0 1 .869.084 1.88 1.88 0 0 1 .674.275 1.28 1.28 0 0 1 .435.508c.103.212.154.473.154.784 0 .336-.076.615-.229.839s-.379.407-.678.551c.412.118.72.325.923.621s.305.652.305 1.069c0 .336-.065.627-.196.873a1.71 1.71 0 0 1-.528.602c-.222.156-.475.271-.758.346a3.4 3.4 0 0 1-.875.112h-3.236v-6.664h3.142zm-.187 2.695c.261 0 .477-.062.645-.187s.252-.325.252-.604c0-.155-.028-.283-.084-.382a.63.63 0 0 0-.225-.233c-.093-.056-.201-.095-.322-.116a2.17 2.17 0 0 0-.378-.032h-1.374v1.555h1.486zm.085 2.828a1.97 1.97 0 0 0 .412-.042 1.04 1.04 0 0 0 .346-.14.71.71 0 0 0 .238-.267c.06-.111.089-.255.089-.429 0-.342-.097-.586-.29-.732s-.449-.219-.767-.219h-1.6v1.828h1.571zm2.813-5.523h1.644l1.561 2.632 1.551-2.632h1.634l-2.474 4.106v2.558h-1.469v-2.595l-2.446-4.069zm23.892 0l2.784 4.471h.016v-4.471h1.375v6.664h-1.466l-2.773-4.462h-.019v4.462h-1.375v-6.664h1.458zm9.738 1.776c-.087-.141-.196-.264-.327-.369a1.5 1.5 0 0 0-.443-.247c-.165-.06-.338-.089-.518-.089-.33 0-.61.063-.841.191a1.57 1.57 0 0 0-.56.513 2.23 2.23 0 0 0-.313.732 3.66 3.66 0 0 0-.098.849 3.38 3.38 0 0 0 .098.816c.065.265.17.503.313.714s.329.381.56.509.511.191.841.191c.447 0 .798-.137 1.05-.411s.406-.635.462-1.083h1.419a3.39 3.39 0 0 1-.289 1.13 2.71 2.71 0 0 1-.616.86c-.255.237-.554.418-.896.543a3.27 3.27 0 0 1-1.129.188c-.511 0-.97-.089-1.378-.267a2.96 2.96 0 0 1-1.032-.732c-.281-.312-.496-.678-.646-1.098a4.03 4.03 0 0 1-.225-1.359c0-.498.075-.96.225-1.387s.364-.799.646-1.116.625-.566 1.032-.747.867-.271 1.378-.271c.367 0 .714.053 1.041.159a2.8 2.8 0 0 1 .877.463 2.49 2.49 0 0 1 .64.752c.168.299.273.642.317 1.027h-1.419a1.19 1.19 0 0 0-.168-.462zm5.642-19.655c.004 5.536-4.479 10.025-10.016 10.03s-10.025-4.48-10.029-10.015c-.004-5.551 4.479-10.041 10.015-10.045s10.026 4.48 10.03 10.015z" fill="#fff"/><path d="M271.124 153.229c3.271 0 6.036 1.128 8.295 3.383s3.389 5.019 3.389 8.286-1.11 5.999-3.33 8.198c-2.356 2.314-5.141 3.471-8.354 3.471-3.175 0-5.91-1.147-8.208-3.442s-3.446-5.037-3.446-8.226 1.148-5.952 3.446-8.286c2.239-2.255 4.976-3.383 8.208-3.383zm-9.029 8.534a9.35 9.35 0 0 0-.521 3.135c0 2.586.943 4.822 2.832 6.709s4.138 2.83 6.748 2.83 4.877-.953 6.805-2.859c.646-.623 1.178-1.304 1.595-2.041l-4.399-1.958c-.298 1.48-1.616 2.479-3.211 2.597v1.799h-1.34v-1.799c-1.31-.015-2.575-.55-3.542-1.397l1.606-1.621c.774.728 1.549 1.056 2.605 1.056.685 0 1.443-.268 1.443-1.16a.87.87 0 0 0-.315-.701l-1.112-.496-9.193-4.093zm9.059-6.434c-2.648 0-4.888.933-6.718 2.801-.499.503-.932 1.028-1.301 1.576l4.462 1.986c.402-1.238 1.578-1.989 3.006-2.072v-1.799h1.34v1.799c.923.044 1.935.297 2.932 1.07l-1.533 1.576c-.565-.401-1.279-.684-1.994-.684-.58 0-1.398.178-1.398.906 0 .112.036.21.105.296l10.354 4.61c.198-.783.297-1.616.297-2.498 0-2.666-.935-4.92-2.804-6.768-1.851-1.868-4.1-2.801-6.747-2.801z"/><circle cx="242.562" cy="165.136" r="10.806" fill="#fff"/><path d="M245.69 162.009c0-.416-.338-.754-.754-.754h-4.772c-.416 0-.754.337-.754.754v4.773h1.331v5.652h3.617v-5.652h1.332v-4.773z"/><circle cx="242.55" cy="158.995" r="1.632"/><path d="M242.535 153.229c-3.231 0-5.968 1.127-8.208 3.384-2.298 2.333-3.446 5.096-3.446 8.285s1.148 5.932 3.446 8.227 5.034 3.442 8.208 3.442c3.213 0 5.998-1.156 8.354-3.471 2.221-2.197 3.33-4.93 3.33-8.197s-1.129-6.029-3.388-8.285-5.024-3.384-8.296-3.384zm.029 2.1c2.648 0 4.897.934 6.747 2.801 1.87 1.848 2.805 4.104 2.805 6.768 0 2.684-.915 4.911-2.746 6.68-1.928 1.906-4.196 2.859-6.806 2.859s-4.858-.943-6.747-2.83-2.833-4.123-2.833-6.709.954-4.843 2.862-6.768c1.831-1.867 4.07-2.801 6.718-2.801z" fill-rule="evenodd"/></g></svg>